<?xml version="1.0" standalone="no"?>
<!DOCTYPE svg PUBLIC "-//W3C//DTD SVG 20010904//EN"
 "http://www.w3.org/TR/2001/REC-SVG-20010904/DTD/svg10.dtd">
<svg version="1.0" xmlns="http://www.w3.org/2000/svg"
 width="525.000000pt" height="492.000000pt" viewBox="0 0 525.000000 492.000000"
 preserveAspectRatio="xMidYMid meet">
<metadata>
Created by potrace 1.10, written by Peter Selinger 2001-2011
</metadata>
<g transform="translate(0.000000,492.000000) scale(0.100000,-0.100000)"
fill="#d83431" stroke="none">
<path d="M2480 4212 c-36 -18 -79 -41 -95 -51 -17 -10 -68 -38 -114 -62 -46
-24 -122 -65 -169 -90 -48 -25 -132 -70 -187 -99 -55 -28 -104 -56 -110 -60
-5 -5 -46 -27 -90 -49 -44 -23 -116 -61 -160 -84 l-80 -42 -1 -90 c0 -50 -2
-96 -2 -104 -2 -11 -23 -13 -104 -10 l-102 4 0 -214 0 -215 194 -1 c112 -1
200 2 208 8 6 5 12 24 12 41 0 62 -9 65 -165 55 -98 -6 -141 -5 -146 2 -5 9
-6 201 0 219 0 3 601 4 1333 3 l1333 -2 3 -116 3 -115 -103 5 c-57 3 -122 8
-145 10 -34 4 -44 1 -53 -15 -12 -22 -13 -70 -2 -86 5 -7 73 -10 206 -9 l199
1 0 206 c0 113 -3 210 -7 216 -4 7 -40 8 -101 5 -77 -5 -95 -3 -97 8 0 8 -2
55 -2 104 l-1 90 -80 41 c-44 23 -114 58 -155 79 -41 21 -82 44 -90 50 -8 7
-62 37 -119 66 -57 30 -142 75 -190 100 -47 25 -129 69 -181 96 -52 28 -117
64 -145 80 -88 51 -104 54 -271 56 l-159 2 -65 -33z m420 -106 c25 -14 90 -48
145 -77 55 -29 116 -62 135 -74 20 -13 58 -33 85 -45 27 -12 65 -32 85 -45 19
-12 91 -47 160 -79 144 -66 168 -83 147 -103 -11 -11 -29 -12 -98 -4 -102 13
-1613 14 -1712 2 -76 -10 -109 -5 -105 16 4 17 21 28 168 98 63 30 169 83 235
118 231 122 320 170 342 185 47 30 90 37 228 35 129 -1 144 -4 185 -27z m938
-567 c2 -29 -1 -56 -6 -61 -9 -9 -2237 -12 -2253 -3 -9 6 -13 107 -5 116 2 2
512 3 1133 2 l1128 -2 3 -52z"/>
<path d="M2446 3904 c-9 -23 -7 -77 3 -92 5 -9 23 -12 52 -10 39 3 44 6 53 36
6 22 5 41 -2 57 -10 21 -18 25 -56 25 -31 0 -46 -5 -50 -16z"/>
<path d="M2651 3897 c-5 -13 -6 -39 -2 -58 6 -32 10 -34 50 -37 50 -4 61 6 61
55 0 54 -8 63 -56 63 -37 0 -46 -4 -53 -23z"/>
<path d="M2854 3906 c-3 -7 -4 -33 -2 -57 l3 -44 51 -3 52 -3 6 35 c4 19 4 46
0 60 -6 24 -11 26 -55 26 -33 0 -51 -5 -55 -14z"/>
<path d="M1784 3134 c-3 -12 -4 -36 -2 -54 l3 -32 920 0 920 1 3 32 c2 17 1
41 -2 53 l-5 21 -916 0 -916 0 -5 -21z"/>
<path d="M1380 2930 c-11 -7 -16 -1402 -5 -1420 8 -13 72 -13 80 0 4 6 7 326
7 713 l0 702 -36 6 c-19 3 -40 3 -46 -1z"/>
<path d="M3954 2927 c-12 -7 -14 -111 -14 -706 0 -769 -4 -725 62 -719 l33 3
0 715 0 715 -33 0 c-18 0 -40 -4 -48 -8z"/>
<path d="M1578 2228 c-2 -389 1 -709 6 -715 10 -15 72 -17 81 -3 3 5 7 303 8
662 l2 653 55 0 55 0 1 -650 c0 -357 1 -656 2 -662 2 -14 60 -17 80 -5 10 7
12 156 10 713 l-3 704 -147 3 -148 3 -2 -703z"/>
<path d="M1990 2928 c-4 -67 1 -1412 5 -1418 7 -12 55 -13 73 -1 11 6 14 134
15 661 l2 652 618 2 c405 1 617 -2 617 -9 1 -5 0 -301 0 -657 l-1 -647 27 -7
c40 -10 79 7 78 34 0 12 -1 330 -2 707 l-2 685 -715 0 c-393 0 -715 -1 -715
-2z"/>
<path d="M3532 2218 l3 -713 34 -3 c18 -2 38 1 43 6 7 7 11 248 12 664 l1 653
55 0 55 0 2 -652 c1 -359 5 -657 8 -663 11 -17 73 -12 82 8 4 9 7 331 5 715
l-2 697 -150 0 -150 0 2 -712z"/>
<path d="M2191 2706 c-7 -8 -11 -34 -9 -58 l3 -43 55 0 55 0 3 43 c4 54 -10
72 -58 72 -21 0 -43 -6 -49 -14z"/>
<path d="M3117 2714 c-4 -4 -7 -31 -7 -61 l0 -53 54 0 c31 0 56 5 58 11 2 6 1
32 -2 58 l-5 46 -45 3 c-25 2 -49 0 -53 -4z"/>
<path d="M2620 2583 c-97 -64 -123 -118 -120 -252 1 -53 2 -102 1 -108 -1 -9
-19 -13 -56 -13 l-55 0 2 -241 3 -241 303 -1 c166 0 305 3 308 6 4 3 6 111 6
239 l0 233 -54 5 -53 5 0 122 c0 121 0 121 -31 160 -17 21 -50 53 -73 71 -37
28 -50 32 -99 31 -35 0 -67 -6 -82 -16z m165 -135 c23 -27 25 -37 25 -134 l0
-105 -107 3 -108 3 -2 75 c-2 101 3 133 30 164 46 53 115 50 162 -6z m118
-346 c12 -10 16 -256 4 -268 -10 -10 -400 -5 -410 5 -13 13 -12 248 1 264 13
15 386 14 405 -1z"/>
<path d="M2192 1608 c-7 -7 -12 -28 -12 -48 0 -43 15 -60 53 -60 48 0 67 16
67 58 0 47 -14 62 -60 62 -20 0 -41 -5 -48 -12z"/>
<path d="M3114 1606 c-3 -7 -4 -33 -2 -57 3 -44 3 -44 44 -47 56 -4 77 17 68
66 -4 21 -9 40 -11 45 -8 13 -93 8 -99 -7z"/>
<path d="M1062 1386 c-3 -6 -5 -49 -3 -95 l3 -84 101 -113 102 -113 1436 0
1435 -1 108 115 107 114 -3 93 -3 93 -653 -1 -653 -2 -51 -56 -50 -56 -231 0
-231 0 -57 56 -56 56 -647 2 c-441 2 -649 -1 -654 -8z m1316 -156 l44 -50 283
0 283 0 33 45 c19 24 41 47 50 50 8 3 277 6 597 8 477 2 583 0 587 -11 3 -8
-33 -53 -82 -105 -48 -51 -88 -93 -89 -95 0 -1 -621 -2 -1378 -2 l-1376 0 -90
92 c-82 83 -98 106 -86 119 2 2 269 3 592 2 l588 -3 44 -50z"/>
</g>
</svg>
