<?xml version="1.0" standalone="no"?>
<!DOCTYPE svg PUBLIC "-//W3C//DTD SVG 20010904//EN"
 "http://www.w3.org/TR/2001/REC-SVG-20010904/DTD/svg10.dtd">
<svg version="1.0" xmlns="http://www.w3.org/2000/svg"
 width="456.000000pt" height="474.000000pt" viewBox="0 0 456.000000 474.000000"
 preserveAspectRatio="xMidYMid meet">
<metadata>
Created by potrace 1.10, written by Peter Selinger 2001-2011
</metadata>
<g transform="translate(0.000000,474.000000) scale(0.100000,-0.100000)"
fill="#d83431" stroke="none">
<path d="M2189 3916 c-13 -14 -11 -60 3 -74 9 -9 128 -12 475 -12 522 0 543
-2 663 -71 131 -76 211 -184 275 -374 36 -104 54 -153 64 -173 5 -9 21 -47 34
-83 35 -96 29 -103 -84 -94 l-89 7 0 -176 0 -176 -182 -2 -183 -3 0 -188 0
-188 -1152 0 c-634 1 -1153 -3 -1153 -7 -3 -124 0 -1096 3 -1098 5 -6 1689 -6
1694 0 8 8 2 491 -5 498 -5 5 -231 7 -503 6 l-494 -3 -5 -210 -5 -210 -297 -3
-298 -2 -2 457 c-2 252 0 464 3 471 4 10 229 13 1158 12 l1152 0 -2 184 c-1
101 1 189 5 194 4 6 56 8 145 5 131 -6 141 -5 175 16 l36 23 0 154 c0 116 3
154 13 156 6 1 50 2 97 2 l85 1 3 40 c4 43 -14 143 -30 162 -5 6 -13 24 -18
40 -5 15 -18 53 -30 83 -12 30 -26 69 -30 85 -65 232 -192 400 -360 481 -147
71 -166 73 -688 76 -283 2 -467 -1 -473 -6z m283 -2298 c2 -7 3 -85 3 -173 l0
-160 -418 -3 c-276 -1 -417 1 -418 8 -4 62 0 320 5 329 11 17 822 16 828 -1z"/>
<path d="M2388 3589 c-25 -14 -24 -75 1 -89 47 -25 91 0 91 50 0 43 -50 64
-92 39z"/>
<path d="M2583 3590 c-44 -18 -37 -84 11 -96 39 -9 66 11 66 52 0 28 -5 36
-26 44 -14 6 -26 10 -27 9 -1 0 -12 -4 -24 -9z"/>
<path d="M2768 3593 c-21 -5 -33 -43 -23 -72 8 -26 49 -37 81 -22 19 8 24 18
24 45 0 47 -28 63 -82 49z"/>
<path d="M864 3408 c-3 -4 -5 -233 -5 -510 l-1 -503 46 -3 47 -3 -1 467 c-1
256 1 468 3 470 7 7 2081 4 2147 -3 57 -6 60 -5 69 21 6 14 7 35 3 46 -8 21
-8 21 -1156 23 -631 1 -1150 -1 -1152 -5z"/>
<path d="M1375 3118 c-9 -6 -15 -19 -14 -31 4 -57 1 -60 -40 -53 -48 7 -51 2
-51 -110 0 -96 -7 -88 110 -138 66 -28 75 -36 78 -60 2 -16 -2 -32 -8 -36 -7
-4 -50 -5 -97 -2 l-84 5 3 -44 c3 -43 4 -44 39 -45 44 -1 60 -10 52 -29 -3 -8
-2 -26 1 -40 5 -19 13 -25 34 -25 42 0 56 15 57 57 l0 38 45 0 45 0 3 97 3 98
-43 19 c-24 11 -65 28 -91 37 -54 19 -75 51 -56 85 10 19 17 20 98 14 98 -8
107 -3 92 52 -6 24 -13 28 -42 28 -45 0 -62 12 -55 39 3 11 2 26 -2 32 -10 16
-57 23 -77 12z"/>
<path d="M1830 3110 c-26 -26 -25 -55 2 -74 45 -32 98 -10 98 39 0 51 -62 73
-100 35z"/>
<path d="M1824 2861 c-7 -8 -4 -81 4 -81 113 -4 1005 0 1012 5 13 8 13 62 0
70 -12 7 -1009 13 -1016 6z"/>
<path d="M1822 2648 l3 -43 415 0 415 0 0 40 0 40 -418 3 -418 2 3 -42z"/>
<path d="M2744 2676 c-3 -8 -4 -27 -2 -43 3 -27 6 -28 53 -28 l50 0 0 40 0 40
-48 3 c-34 2 -49 -1 -53 -12z"/>
<path d="M3186 2131 c-19 -7 -19 -23 -20 -427 l-1 -419 -245 -1 c-135 0 -251
-3 -258 -8 -15 -9 -16 -62 -1 -72 6 -3 142 -6 302 -6 l292 1 0 468 0 468 -25
2 c-14 1 -34 -1 -44 -6z"/>
<path d="M1269 2038 c-7 -16 -7 -32 0 -51 9 -22 17 -27 43 -27 49 0 60 11 56
56 -3 38 -4 39 -45 42 -37 3 -44 0 -54 -20z"/>
<path d="M1552 2048 c-7 -7 -12 -24 -12 -38 0 -33 17 -50 51 -50 48 0 71 38
49 81 -12 22 -68 27 -88 7z"/>
<path d="M1730 2035 c-16 -43 5 -75 51 -75 32 0 49 17 49 50 0 35 -17 50 -57
50 -26 0 -35 -5 -43 -25z"/>
<path d="M1922 2048 c-7 -7 -12 -24 -12 -38 0 -33 17 -50 51 -50 31 0 59 23
59 49 0 40 -69 68 -98 39z"/>
<path d="M2100 2041 c-24 -46 -2 -81 52 -81 31 0 48 18 48 50 0 35 -17 50 -57
50 -22 0 -36 -6 -43 -19z"/>
<path d="M2292 2048 c-7 -7 -12 -24 -12 -38 0 -32 17 -50 48 -50 39 0 62 18
62 48 0 36 -17 52 -55 52 -17 0 -36 -5 -43 -12z"/>
<path d="M2476 2044 c-34 -33 -8 -84 43 -84 34 0 51 17 51 50 0 14 -5 31 -12
38 -17 17 -64 15 -82 -4z"/>
<path d="M2659 2046 c-12 -13 -12 -63 2 -72 13 -8 256 -7 269 1 14 8 13 62 -1
71 -17 10 -259 10 -270 0z"/>
<path d="M1181 1877 c-14 -14 -14 -42 -1 -68 9 -16 22 -19 88 -19 47 0 83 5
90 12 15 15 16 65 1 74 -20 12 -166 13 -178 1z"/>
<path d="M1454 1876 c-3 -8 -4 -29 -2 -48 3 -32 4 -33 48 -33 l45 0 3 39 c2
24 -2 42 -10 47 -21 14 -78 10 -84 -5z"/>
<path d="M1638 1865 c-18 -40 3 -75 45 -75 40 0 57 15 57 50 0 35 -17 50 -57
50 -26 0 -36 -6 -45 -25z"/>
<path d="M1833 1883 c-16 -6 -17 -65 -1 -81 7 -7 24 -12 38 -12 35 0 50 17 50
56 0 39 -40 57 -87 37z"/>
<path d="M2012 1878 c-15 -15 -15 -43 -2 -69 7 -13 21 -19 45 -19 36 0 55 20
55 59 0 35 -71 56 -98 29z"/>
<path d="M2201 1881 c-17 -11 -18 -56 -1 -76 19 -23 66 -19 84 7 20 28 20 43
0 62 -17 17 -61 21 -83 7z"/>
<path d="M2386 1875 c-36 -36 -6 -88 48 -83 23 2 33 10 40 31 7 19 7 34 0 45
-15 23 -67 27 -88 7z"/>
<path d="M2566 1874 c-19 -18 -19 -24 -6 -58 8 -22 16 -26 49 -26 26 0 41 5
45 16 10 25 7 59 -6 72 -17 17 -64 15 -82 -4z"/>
<path d="M2823 1883 c-67 -4 -73 -6 -79 -28 -3 -13 -1 -33 6 -44 10 -20 18
-22 98 -19 l87 3 3 33 c3 34 -12 63 -32 60 -6 -1 -44 -4 -83 -5z"/>
<path d="M1359 1693 c-17 -44 7 -79 51 -75 38 3 50 15 50 53 0 34 -17 49 -57
49 -27 0 -35 -5 -44 -27z"/>
<path d="M2663 1708 c-31 -40 -21 -81 23 -92 56 -14 98 49 58 88 -19 19 -68
21 -81 4z"/>
</g>
</svg>
