<?xml version="1.0" standalone="no"?>
<!DOCTYPE svg PUBLIC "-//W3C//DTD SVG 20010904//EN"
 "http://www.w3.org/TR/2001/REC-SVG-20010904/DTD/svg10.dtd">
<svg version="1.0" xmlns="http://www.w3.org/2000/svg"
 width="447.000000pt" height="450.000000pt" viewBox="0 0 447.000000 450.000000"
 preserveAspectRatio="xMidYMid meet">
<metadata>
Created by potrace 1.10, written by Peter Selinger 2001-2011
</metadata>
<g transform="translate(0.000000,450.000000) scale(0.100000,-0.100000)"
fill="#d83431" stroke="none">
<path d="M831 3754 c-15 -6 -35 -23 -44 -37 -16 -24 -17 -87 -17 -783 0 -839
-3 -798 65 -823 25 -9 191 -11 631 -11 487 1 599 -1 605 -12 4 -7 10 -42 14
-78 23 -205 150 -407 341 -543 62 -44 147 -84 229 -107 l60 -17 2 -254 c1
-140 2 -262 2 -272 1 -15 8 -18 44 -15 l42 3 2 155 c0 85 1 161 2 168 1 9 26
12 91 12 65 0 90 -4 91 -12 1 -7 2 -83 3 -168 l1 -155 39 -3 c24 -2 42 2 48
10 5 7 6 124 2 263 -6 207 -4 252 7 261 8 6 46 21 84 34 98 32 169 70 246 132
106 85 194 199 239 308 12 30 28 69 35 85 43 97 53 315 21 439 -10 38 -22 76
-26 85 -5 9 -25 50 -44 91 -20 41 -50 94 -67 116 l-31 41 2 510 c1 536 0 549
-44 572 -30 16 -2638 21 -2675 5z m2620 -91 c4 -5 9 -206 10 -448 1 -369 0
-440 -12 -442 -8 -2 -34 15 -59 38 -71 63 -172 112 -315 150 -76 21 -295 18
-370 -4 -227 -69 -380 -176 -494 -347 -80 -121 -112 -203 -130 -339 -5 -40
-13 -76 -18 -80 -4 -3 -276 -4 -603 -1 l-595 5 -3 729 c-1 434 2 733 7 740 11
13 2570 12 2582 -1z m-411 -787 c127 -23 312 -123 398 -216 23 -24 24 -28 21
-194 -3 -149 -1 -171 13 -180 12 -7 26 -7 45 0 31 11 32 15 18 142 -6 54 -5
72 4 72 33 0 65 -69 92 -195 25 -122 12 -328 -26 -405 -64 -128 -84 -163 -123
-213 -90 -114 -260 -224 -417 -268 -66 -18 -265 -18 -330 0 -93 26 -248 106
-312 162 -134 117 -196 220 -254 423 -26 89 -21 109 29 114 45 5 69 -26 74
-97 3 -44 16 -81 51 -152 138 -275 422 -409 730 -344 153 32 318 155 403 300
50 85 70 143 86 257 13 98 6 118 -41 118 -39 0 -51 -18 -51 -76 0 -172 -89
-331 -244 -437 -72 -49 -124 -69 -228 -87 -171 -29 -358 37 -484 172 -62 65
-122 174 -144 260 -18 69 -10 82 48 75 26 -4 116 -7 201 -8 165 -2 171 0 171
52 0 15 -6 31 -12 37 -9 6 -81 7 -208 2 -107 -4 -198 -5 -202 -3 -32 17 37
196 116 301 36 48 108 111 176 153 46 29 123 49 187 49 57 0 64 2 72 23 10 25
4 74 -10 83 -5 3 -48 -3 -96 -12 -89 -17 -189 -60 -267 -113 -74 -51 -160
-151 -195 -226 -18 -38 -37 -78 -42 -87 -5 -10 -13 -47 -18 -84 -12 -80 -22
-94 -73 -94 -47 0 -56 17 -39 74 7 23 16 57 20 76 5 19 13 46 19 60 5 14 18
45 28 70 57 139 194 276 355 355 147 72 291 91 459 61z m-42 -1594 c2 -24 -1
-49 -7 -55 -10 -13 -159 -16 -179 -3 -7 4 -12 22 -12 41 0 62 2 63 103 62 l92
-2 3 -43z"/>
<path d="M3188 3489 c-21 -12 -25 -78 -6 -97 16 -16 73 -15 86 1 6 6 13 24 17
39 12 49 -49 85 -97 57z"/>
<path d="M1713 3400 c-18 -7 -23 -17 -23 -48 0 -21 5 -43 12 -50 20 -20 76
-15 88 7 12 23 13 61 2 78 -10 17 -53 24 -79 13z"/>
<path d="M1148 3389 c-42 -24 -7 -95 41 -86 40 8 61 -9 61 -47 0 -42 -20 -60
-58 -51 -21 4 -34 1 -46 -10 -35 -36 -9 -73 54 -77 l45 -3 0 -45 0 -45 -45 -3
c-52 -4 -70 -16 -70 -47 0 -38 21 -46 112 -43 l83 3 0 43 c1 58 36 78 87 51
16 -8 19 -17 14 -42 -3 -18 -2 -37 2 -44 10 -15 159 -20 173 -6 6 6 9 26 7 44
-3 33 -5 34 -53 39 l-50 5 0 45 0 45 50 5 c46 5 50 7 53 33 5 40 -15 60 -51
53 -39 -8 -57 8 -57 50 0 39 13 49 60 49 29 0 36 5 44 28 18 49 0 62 -88 63
-82 0 -103 -10 -91 -46 12 -39 -3 -60 -44 -60 -47 0 -63 17 -55 57 4 20 1 33
-6 38 -20 12 -153 15 -172 4z m273 -180 c17 -17 20 -28 14 -57 -8 -43 -19 -52
-60 -52 -42 0 -55 11 -61 52 -11 66 60 104 107 57z"/>
<path d="M1058 2659 c-24 -13 -25 -84 -2 -93 26 -10 69 -7 82 6 20 20 15 76
-7 88 -25 13 -51 12 -73 -1z"/>
<path d="M1248 2659 c-21 -12 -24 -69 -6 -87 17 -17 64 -15 82 4 49 48 -16
119 -76 83z"/>
<path d="M1425 2653 c-19 -18 -14 -71 8 -85 36 -23 87 4 87 47 0 49 -60 73
-95 38z"/>
<path d="M1612 2661 c-19 -12 -20 -80 -2 -92 19 -11 61 -11 80 0 8 6 14 25 14
46 0 21 -6 40 -14 46 -19 11 -61 11 -78 0z"/>
<path d="M1893 2663 c-8 -3 -13 -23 -13 -49 0 -38 3 -44 24 -50 13 -3 35 -4
47 -2 21 3 24 10 27 47 2 28 -1 47 -10 52 -14 9 -55 10 -75 2z"/>
<path d="M1054 2467 c-16 -9 -19 -73 -4 -82 13 -8 628 -7 641 1 12 7 11 71 -1
79 -16 10 -619 11 -636 2z"/>
<path d="M1789 2452 c-12 -31 -4 -72 14 -73 81 -5 154 -3 165 4 13 10 16 65 4
83 -4 7 -39 12 -90 12 -81 1 -83 0 -93 -26z"/>
<path d="M2880 2202 c-22 -7 -30 -23 -30 -57 0 -39 16 -55 55 -55 17 0 36 5
43 12 13 13 16 67 4 84 -8 13 -52 22 -72 16z"/>
<path d="M3050 2195 c-13 -16 -16 -77 -5 -95 7 -11 55 -13 79 -4 11 4 16 19
16 50 0 39 -3 46 -26 54 -35 14 -49 12 -64 -5z"/>
<path d="M1845 1928 c-11 -6 -35 -15 -55 -19 -77 -18 -157 -37 -197 -48 -100
-26 -121 -30 -185 -37 -87 -9 -90 -27 -13 -84 30 -22 55 -45 55 -50 0 -13
-172 -181 -182 -178 -5 2 -74 68 -153 147 -101 101 -148 142 -159 138 -14 -6
-16 -38 -16 -255 0 -179 3 -251 12 -260 23 -23 52 -12 95 34 37 41 43 44 49
28 29 -87 67 -138 97 -128 36 11 57 38 57 70 0 18 -3 34 -7 36 -5 2 -16 18
-25 36 -19 35 -20 34 47 36 32 1 42 6 52 27 12 24 157 172 228 232 l30 25 -27
29 c-37 39 -35 51 10 58 46 7 105 23 155 40 42 15 67 11 67 -12 0 -8 -9 -45
-19 -81 -11 -37 -22 -84 -26 -105 -7 -46 -29 -57 -59 -28 -12 11 -25 21 -29
21 -4 0 -101 -95 -215 -211 -114 -115 -222 -219 -239 -230 -18 -12 -33 -28
-33 -38 0 -22 44 -64 62 -59 7 1 103 95 213 208 110 113 207 206 216 208 10 2
31 -16 54 -47 26 -37 43 -51 61 -51 22 0 24 4 24 51 0 47 26 182 49 254 6 17
15 53 21 80 6 28 18 74 27 103 14 46 14 55 2 63 -18 11 -20 11 -44 -3z m-572
-488 c1 -3 -24 -6 -55 -8 -57 -3 -58 -4 -58 -32 0 -17 4 -30 10 -30 5 0 13
-12 16 -27 4 -15 13 -34 21 -41 18 -18 17 -52 -2 -52 -20 0 -32 16 -68 90 -18
36 -39 66 -47 67 -8 1 -31 -18 -50 -42 -19 -24 -39 -44 -45 -44 -6 -1 -9 71
-8 201 1 112 2 204 3 204 0 3 281 -281 283 -286z"/>
</g>
</svg>
