<?xml version="1.0" standalone="no"?>
<!DOCTYPE svg PUBLIC "-//W3C//DTD SVG 20010904//EN"
 "http://www.w3.org/TR/2001/REC-SVG-20010904/DTD/svg10.dtd">
<svg version="1.0" xmlns="http://www.w3.org/2000/svg"
 width="444.000000pt" height="447.000000pt" viewBox="0 0 444.000000 447.000000"
 preserveAspectRatio="xMidYMid meet">
<metadata>
Created by potrace 1.10, written by Peter Selinger 2001-2011
</metadata>
<g transform="translate(0.000000,447.000000) scale(0.100000,-0.100000)"
fill="#d83431" stroke="none">
<path d="M1950 3931 c-80 -9 -155 -23 -167 -29 -12 -7 -34 -12 -50 -12 -27 0
-98 -20 -158 -46 -16 -6 -50 -20 -75 -29 -90 -34 -285 -138 -285 -151 1 -5 10
-24 20 -41 15 -24 27 -33 48 -33 15 0 27 4 27 9 0 10 15 19 107 65 28 14 55
31 58 36 3 6 16 10 29 10 12 0 31 7 42 15 10 8 28 15 39 15 11 0 29 6 40 13
11 8 52 21 90 30 39 9 90 22 115 28 25 6 86 15 136 19 50 4 96 10 102 14 6 3
13 2 17 -4 3 -5 6 -364 5 -797 l-1 -787 -294 -293 c-162 -161 -299 -293 -305
-293 -19 0 -10 -37 18 -67 17 -19 32 -28 42 -24 15 6 516 510 561 564 12 15
26 27 29 27 4 0 205 -198 446 -440 242 -242 454 -451 472 -463 18 -12 31 -27
30 -33 -4 -15 -164 -136 -241 -182 -191 -114 -392 -177 -612 -191 l-90 -6 -3
-41 c-4 -55 12 -68 69 -55 24 6 69 11 99 11 30 1 73 5 95 10 22 5 62 14 88 19
51 11 126 35 167 52 14 6 39 17 55 24 39 16 174 82 200 98 39 24 151 111 195
153 l44 43 41 -37 c50 -44 52 -49 29 -71 -44 -40 -221 -169 -242 -175 -12 -4
-22 -11 -22 -16 0 -4 -8 -10 -17 -14 -10 -3 -26 -10 -35 -16 -42 -24 -54 -30
-68 -36 -26 -10 -104 -45 -122 -55 -10 -5 -25 -9 -34 -9 -9 0 -28 -6 -42 -14
-31 -16 -85 -30 -197 -54 -113 -23 -477 -23 -590 0 -115 24 -164 38 -213 60
-52 24 -64 20 -86 -27 -21 -44 -13 -57 46 -74 24 -7 59 -17 78 -24 19 -6 55
-14 80 -18 25 -4 63 -12 85 -17 40 -10 226 -26 300 -26 80 0 271 16 310 26 22
5 58 13 80 17 23 4 47 11 55 16 7 4 30 12 49 16 20 4 61 17 91 29 30 12 65 24
77 27 12 3 28 11 34 19 6 8 19 14 28 14 9 1 34 12 56 25 22 14 51 30 65 36 13
5 27 13 30 17 3 4 21 16 40 26 68 38 196 142 288 235 99 100 213 244 239 301
4 8 10 17 14 20 12 9 79 138 79 153 0 8 6 20 14 26 8 6 16 22 19 34 3 12 15
47 27 77 12 30 24 64 26 75 3 11 11 43 19 70 8 28 19 68 25 90 12 44 43 363
36 373 -2 4 -7 59 -11 122 -3 63 -11 133 -16 155 -6 22 -14 61 -19 87 -5 27
-12 53 -16 60 -4 6 -11 28 -15 47 -4 20 -17 61 -29 91 -12 30 -24 65 -27 77
-3 12 -11 28 -19 34 -8 6 -14 18 -14 26 0 14 -52 115 -73 142 -12 14 -32 48
-43 71 -4 8 -33 49 -65 90 -81 107 -216 244 -314 317 -83 63 -121 90 -135 96
-8 4 -28 16 -45 27 -30 19 -96 53 -125 64 -8 3 -22 10 -30 15 -45 26 -80 41
-93 41 -9 0 -28 6 -44 14 -41 20 -125 46 -149 46 -12 0 -38 7 -57 15 -20 8
-56 15 -79 15 -24 0 -57 4 -74 9 -67 19 -256 20 -404 2z m385 -97 c86 -7 266
-50 333 -80 18 -8 38 -14 45 -14 10 0 107 -44 157 -71 8 -4 33 -18 55 -30 22
-11 59 -34 83 -50 24 -16 47 -29 51 -29 5 0 15 -7 22 -17 8 -9 37 -33 64 -53
109 -81 271 -261 345 -385 13 -22 27 -42 30 -45 4 -3 10 -12 13 -20 4 -8 18
-35 32 -59 14 -24 25 -50 25 -56 0 -7 7 -18 15 -25 8 -7 15 -20 15 -29 0 -9 7
-29 15 -45 8 -15 15 -35 15 -43 0 -8 6 -27 14 -41 17 -33 34 -99 46 -172 5
-30 14 -73 20 -95 16 -58 7 -439 -13 -535 -21 -98 -37 -158 -53 -197 -8 -17
-14 -38 -14 -46 0 -9 -4 -18 -9 -21 -5 -3 -12 -18 -16 -33 -7 -30 -65 -149
-96 -198 -10 -16 -22 -37 -26 -45 -6 -14 -142 -196 -172 -232 -22 -25 -28 -23
-74 22 l-40 41 35 37 c72 76 90 99 136 167 52 77 142 249 142 271 0 7 6 28 14
46 17 40 41 121 61 208 26 118 24 489 -4 583 -5 18 -14 52 -21 77 -37 148 -84
260 -163 390 -35 56 -132 182 -177 230 -8 8 -24 26 -35 40 -11 14 -42 43 -70
65 -27 22 -56 46 -63 52 -23 22 -127 99 -142 106 -18 8 -53 30 -60 38 -10 11
-91 49 -104 49 -7 0 -19 7 -26 15 -7 8 -22 15 -34 15 -12 0 -26 4 -32 9 -9 8
-87 33 -204 65 -30 8 -100 18 -155 22 -55 4 -103 12 -107 18 -9 14 -10 79 -2
101 5 13 14 15 38 11 17 -4 58 -9 91 -12z m55 -225 c14 -5 48 -13 75 -18 28
-5 66 -15 85 -21 66 -24 115 -43 145 -56 17 -7 37 -15 45 -18 8 -3 22 -10 30
-15 8 -5 22 -12 30 -15 8 -4 29 -15 45 -26 17 -11 37 -23 45 -27 20 -9 57 -37
100 -77 19 -17 60 -51 89 -75 30 -23 72 -66 93 -94 21 -28 42 -53 46 -56 14
-10 98 -125 128 -176 78 -132 123 -253 161 -430 20 -91 28 -395 13 -450 -6
-22 -15 -65 -20 -95 -15 -91 -48 -194 -92 -283 -15 -31 -28 -61 -28 -67 0 -18
-204 -302 -222 -309 -5 -2 -24 14 -41 35 -42 52 -728 738 -791 790 -27 23 -46
46 -43 51 4 6 104 8 251 5 l246 -5 0 62 0 63 -285 -3 -286 -2 0 661 c1 364 1
664 1 667 0 8 153 -6 180 -16z"/>
<path d="M2900 2240 l0 -60 45 0 45 0 0 60 0 60 -45 0 -45 0 0 -60z"/>
<path d="M3110 2240 l0 -60 45 0 45 0 0 60 0 60 -45 0 -45 0 0 -60z"/>
<path d="M3320 2240 l0 -60 45 0 45 0 0 60 0 60 -45 0 -45 0 0 -60z"/>
<path d="M1015 3393 c-64 -19 -126 -42 -145 -54 -8 -5 -26 -14 -40 -20 -90
-38 -237 -184 -285 -284 -11 -22 -26 -46 -32 -53 -7 -7 -13 -23 -13 -36 0 -12
-4 -26 -9 -31 -13 -13 -39 -129 -46 -206 -4 -36 -2 -91 5 -124 6 -33 13 -76
16 -95 5 -35 13 -56 53 -140 41 -86 82 -141 166 -223 64 -63 185 -140 211
-135 14 3 52 86 42 92 -2 1 -23 12 -48 24 -73 37 -82 43 -161 126 -70 73 -106
128 -152 237 -32 76 -30 309 4 399 13 35 43 101 67 145 33 63 200 215 235 215
8 0 20 7 27 15 7 8 20 15 29 15 9 0 29 7 44 15 16 8 52 17 80 21 29 3 66 10
84 15 36 11 177 -11 248 -38 68 -26 155 -73 178 -94 12 -12 32 -28 45 -37 53
-35 172 -219 172 -266 1 -12 7 -32 15 -46 10 -18 14 -61 14 -160 0 -99 -4
-142 -14 -160 -8 -14 -14 -34 -15 -46 0 -11 -11 -41 -25 -65 -14 -24 -28 -51
-32 -59 -7 -17 -61 -88 -83 -110 -85 -84 -227 -169 -283 -170 -12 -1 -33 -7
-47 -15 -16 -9 -55 -14 -109 -15 l-84 0 7 -105 c6 -83 5 -105 -6 -106 -7 -1
-32 -2 -56 -3 l-42 -1 -1 -634 c0 -348 2 -635 3 -637 2 -1 71 -4 153 -5 l150
-2 3 643 2 643 -41 -6 c-60 -8 -69 -1 -69 48 0 67 6 75 55 75 43 0 124 20 180
45 17 7 37 16 45 19 8 3 29 15 45 26 17 11 39 24 50 29 32 14 132 110 173 165
121 164 169 354 139 551 -14 92 -27 144 -47 186 -64 131 -128 212 -230 292
-75 58 -204 127 -239 127 -10 0 -35 7 -54 15 -50 21 -263 20 -332 -2z m209
-1673 l26 -10 0 -529 0 -529 -22 -6 c-35 -9 -86 -7 -93 4 -7 12 -7 1058 0
1071 8 12 57 12 89 -1z"/>
<path d="M1130 2991 l0 -60 -52 -3 -51 -3 0 -114 c0 -108 1 -115 24 -132 13
-10 29 -19 34 -19 6 0 44 -17 85 -38 75 -37 75 -37 75 -77 l0 -40 -110 0 -110
0 -3 -42 c-4 -50 19 -70 63 -53 38 14 45 6 45 -56 l0 -54 60 0 60 0 0 61 0 61
28 -6 c60 -14 57 -21 59 114 l3 125 -43 18 c-23 10 -54 25 -69 33 -14 8 -33
14 -41 14 -23 0 -67 47 -67 73 0 49 17 56 115 47 50 -4 95 -4 101 1 12 10 13
67 1 86 -4 7 -22 9 -47 6 l-40 -6 0 62 0 61 -60 0 -60 0 0 -59z"/>
</g>
</svg>
