<?xml version="1.0" standalone="no"?>
<!DOCTYPE svg PUBLIC "-//W3C//DTD SVG 20010904//EN"
 "http://www.w3.org/TR/2001/REC-SVG-20010904/DTD/svg10.dtd">
<svg version="1.0" xmlns="http://www.w3.org/2000/svg"
 width="378.000000pt" height="423.000000pt" viewBox="0 0 378.000000 423.000000"
 preserveAspectRatio="xMidYMid meet">
<metadata>
Created by potrace 1.10, written by Peter Selinger 2001-2011
</metadata>
<g transform="translate(0.000000,423.000000) scale(0.100000,-0.100000)"
fill="#d83431" stroke="none">
<path d="M1180 3711 c-21 -6 -25 -13 -25 -46 l0 -40 55 0 55 0 3 38 c3 32 0
38 -23 47 -29 11 -29 11 -65 1z"/>
<path d="M2095 3705 c-8 -5 -13 -26 -11 -45 1 -32 4 -35 41 -41 50 -9 65 3 65
52 0 24 -5 40 -12 41 -41 5 -72 2 -83 -7z"/>
<path d="M2562 3709 c-19 -7 -23 -15 -20 -46 l3 -38 58 -3 57 -3 0 46 c0 41
-2 45 -24 45 -13 0 -30 2 -38 4 -7 3 -23 1 -36 -5z"/>
<path d="M700 3679 c-60 -42 -82 -73 -88 -125 -10 -92 22 -155 100 -195 l39
-20 -2 -334 -1 -335 26 -44 c28 -47 85 -102 121 -116 40 -15 245 -22 261 -9
17 14 19 70 3 86 -8 8 -44 10 -115 6 -97 -6 -105 -5 -138 18 -67 45 -66 43
-68 401 l-1 322 44 28 c50 31 99 107 99 154 0 36 -24 100 -48 128 -64 72 -158
87 -232 35z m158 -90 c54 -53 38 -125 -34 -155 -29 -12 -39 -12 -68 0 -64 27
-78 106 -27 157 41 40 86 40 129 -2z"/>
<path d="M1618 3703 c-1 -4 -1 -132 2 -283 l5 -275 45 0 45 0 2 260 c1 143 3
269 5 280 3 18 -3 20 -49 23 -28 2 -53 -1 -55 -5z"/>
<path d="M2895 3693 c-68 -36 -114 -104 -115 -171 0 -61 65 -155 117 -168 12
-4 23 -11 24 -18 0 -6 1 -153 1 -327 0 -339 -2 -348 -52 -394 -19 -17 -36 -20
-118 -20 l-95 0 -10 -28 c-6 -20 -6 -37 2 -54 12 -25 13 -26 99 -21 103 6 146
22 196 74 73 75 71 61 72 438 0 211 4 341 10 343 48 16 82 46 106 94 31 61 34
92 14 140 -44 106 -162 159 -251 112z m144 -110 c17 -21 31 -46 31 -56 0 -34
-31 -79 -66 -93 -29 -12 -39 -12 -68 0 -36 15 -66 59 -66 95 0 11 14 36 31 56
25 29 38 35 69 35 32 0 44 -6 69 -37z"/>
<path d="M1165 3520 c-4 -7 -6 -93 -4 -193 l4 -181 -37 -21 c-58 -33 -77 -54
-95 -111 -14 -46 -15 -59 -4 -96 27 -88 92 -138 181 -138 90 0 148 45 175 136
15 49 15 55 -5 107 -21 56 -39 76 -100 110 l-33 18 4 187 4 187 -42 3 c-23 2
-44 -2 -48 -8z m97 -480 c14 -10 31 -33 37 -49 11 -24 10 -34 -5 -62 -23 -45
-42 -58 -84 -58 -92 -1 -129 104 -58 164 36 30 76 32 110 5z"/>
<path d="M2092 3478 l3 -53 40 0 c34 0 41 4 49 26 5 14 6 38 2 53 -6 23 -11
26 -52 26 l-45 0 3 -52z"/>
<path d="M2554 3519 c-3 -6 -5 -93 -3 -192 l4 -181 -43 -24 c-61 -34 -92 -87
-92 -157 0 -119 76 -191 191 -183 107 8 169 75 169 185 0 71 -31 124 -88 151
l-37 17 -2 185 c-1 102 -2 191 -2 198 -1 15 -87 17 -97 1z m105 -485 c26 -22
31 -33 31 -70 0 -58 -35 -94 -91 -94 -55 0 -89 36 -89 95 0 36 5 47 31 69 17
15 43 26 59 26 16 0 42 -11 59 -26z"/>
<path d="M2125 3341 l-30 -6 -3 -186 -2 -187 37 -5 c21 -2 41 -2 45 2 5 5 11
255 8 362 0 21 -17 27 -55 20z"/>
<path d="M1622 3048 c-13 -13 -16 -57 -4 -74 4 -6 21 -15 39 -18 37 -9 73 19
73 57 0 33 -18 47 -60 47 -20 0 -41 -5 -48 -12z"/>
<path d="M1775 2855 c-222 -55 -366 -172 -462 -375 -42 -89 -53 -143 -53 -265
0 -131 11 -177 68 -293 44 -88 85 -140 180 -225 47 -42 133 -82 273 -126 56
-18 205 -14 274 8 241 74 365 190 471 441 28 65 28 325 0 390 -57 136 -87 184
-168 268 -71 72 -138 114 -243 152 -110 39 -244 49 -340 25z m325 -115 c96
-42 114 -53 178 -114 64 -61 130 -160 157 -236 27 -77 28 -273 2 -345 -25 -66
-24 -65 -47 -100 -11 -16 -24 -39 -29 -50 -18 -42 -148 -152 -217 -185 -168
-79 -305 -81 -464 -7 -128 60 -210 142 -287 286 -59 109 -54 357 8 469 82 145
162 219 300 278 94 40 114 43 224 40 86 -3 110 -8 175 -36z"/>
<path d="M1861 2536 c-6 -7 -10 -29 -9 -47 3 -33 2 -34 -42 -39 l-45 -5 -3
-99 c-2 -81 0 -102 14 -117 9 -11 22 -19 28 -19 7 0 41 -15 76 -32 64 -32 65
-34 65 -73 0 -45 4 -44 -125 -34 l-55 4 0 -50 0 -50 45 0 45 0 0 -45 0 -45 45
0 45 0 0 45 c0 45 0 45 35 46 19 1 41 2 48 3 9 1 12 30 12 111 0 105 -1 111
-22 120 -13 6 -30 14 -38 19 -8 5 -33 17 -55 26 -65 26 -70 30 -73 68 -4 44 9
49 98 38 36 -5 70 -6 77 -4 17 7 26 40 19 68 -5 20 -13 24 -54 27 -43 3 -47 5
-45 28 4 54 -5 70 -41 70 -18 0 -39 -6 -45 -14z"/>
<path d="M1527 2264 c-12 -12 -8 -81 6 -91 6 -6 24 -13 39 -17 39 -9 60 16 56
68 l-3 41 -45 3 c-25 2 -49 0 -53 -4z"/>
<path d="M2182 2218 c3 -50 4 -53 36 -59 40 -8 62 10 62 51 0 51 -9 60 -57 60
l-44 0 3 -52z"/>
<path d="M535 2386 c-37 -16 -82 -68 -103 -116 -28 -68 5 -156 81 -211 79 -57
191 -30 248 59 16 25 35 49 42 53 6 4 41 3 77 -2 93 -12 102 -7 98 49 l-3 47
-94 0 c-64 0 -96 4 -98 12 -11 32 -65 91 -96 106 -42 20 -110 21 -152 3z m152
-114 c39 -46 29 -97 -27 -135 -69 -47 -161 16 -145 100 13 73 123 96 172 35z"/>
<path d="M3125 2384 c-42 -21 -71 -51 -85 -85 -15 -35 -32 -40 -130 -37 l-75
3 -3 -29 c-2 -15 -1 -39 2 -51 6 -22 9 -22 95 -17 l89 5 17 -34 c37 -73 95
-109 173 -109 112 0 207 130 172 235 -16 47 -66 104 -107 121 -43 19 -111 17
-148 -2z m141 -95 c24 -20 36 -60 29 -96 -6 -35 -56 -73 -95 -73 -51 0 -100
51 -100 104 0 24 34 69 60 79 23 10 89 0 106 -14z"/>
<path d="M1065 2236 c-10 -52 8 -78 53 -74 30 2 38 8 46 30 7 18 6 35 -2 53
-10 21 -18 25 -51 25 -38 0 -40 -2 -46 -34z"/>
<path d="M2650 2244 c-7 -16 -7 -37 -2 -53 7 -22 16 -27 50 -29 37 -3 42 0 47
21 4 14 5 38 3 53 -3 26 -7 29 -46 32 -38 3 -43 0 -52 -24z"/>
<path d="M952 1925 c-53 -23 -111 -74 -132 -116 -19 -36 -20 -60 -20 -372 0
-311 -1 -335 -18 -350 -10 -10 -23 -17 -28 -17 -13 0 -68 -59 -84 -89 -21 -40
-16 -112 9 -158 44 -78 137 -119 208 -93 105 37 154 121 131 223 -9 42 -70
117 -94 117 -35 0 -38 25 -35 353 3 347 5 359 58 394 19 13 55 19 122 23 l96
5 0 45 0 45 -90 2 c-62 2 -100 -2 -123 -12z m-64 -931 c59 -41 63 -114 10
-159 -42 -36 -82 -33 -124 9 -47 47 -46 87 2 132 39 38 76 44 112 18z"/>
<path d="M2646 1924 c-9 -22 -7 -57 3 -73 7 -10 31 -13 92 -12 68 1 90 -2 116
-18 62 -39 64 -48 66 -400 2 -326 -1 -351 -37 -351 -17 0 -70 -58 -90 -97 -52
-104 50 -253 173 -253 88 0 191 100 191 185 0 60 -65 154 -117 170 -13 3 -24
12 -24 18 -1 7 -2 161 -3 342 -1 320 -2 331 -23 371 -24 45 -76 89 -136 117
-52 23 -202 24 -211 1z m372 -930 c25 -17 52 -64 52 -90 0 -9 -11 -32 -25 -50
-45 -59 -126 -54 -160 10 -45 83 57 183 133 130z"/>
<path d="M1162 1648 c-16 -16 -16 -70 0 -86 13 -13 84 -17 91 -4 16 26 17 71
2 86 -19 19 -76 21 -93 4z"/>
<path d="M2558 1649 c-21 -12 -24 -57 -5 -83 10 -13 24 -17 57 -14 45 3 45 3
48 43 3 29 -1 43 -14 52 -21 15 -62 16 -86 2z"/>
<path d="M1162 1458 c-16 -16 -15 -63 2 -77 8 -7 32 -11 52 -9 34 3 40 7 48
35 6 23 5 37 -4 48 -15 18 -81 20 -98 3z"/>
<path d="M1632 1460 c-44 -10 -104 -53 -126 -91 -12 -20 -18 -50 -18 -90 0
-51 4 -64 32 -99 18 -22 44 -47 59 -55 48 -24 49 -29 42 -210 -4 -93 -5 -176
-3 -183 6 -16 46 -26 78 -18 l25 7 -3 187 -3 186 43 24 c93 52 126 175 69 261
-42 63 -126 98 -195 81z m104 -114 c47 -47 46 -86 -1 -133 -32 -32 -40 -35
-73 -30 -52 9 -82 46 -82 102 0 37 5 47 33 69 45 36 81 34 123 -8z"/>
<path d="M2088 1453 c-2 -10 -2 -33 0 -50 4 -32 6 -33 48 -33 38 0 44 3 50 25
3 14 3 36 0 50 -6 22 -12 25 -50 25 -34 0 -45 -4 -48 -17z"/>
<path d="M2563 1463 c-18 -7 -19 -533 -1 -551 14 -14 57 -16 76 -3 10 6 13 66
14 274 0 146 -3 270 -7 276 -6 11 -59 14 -82 4z"/>
<path d="M1172 1282 c-9 -7 -12 -71 -10 -288 l3 -279 33 -3 c18 -2 39 1 45 6
14 12 16 539 3 560 -8 14 -54 16 -74 4z"/>
<path d="M2094 1276 c-3 -8 -4 -31 -2 -52 3 -38 4 -39 43 -39 34 0 41 4 49 26
5 14 6 38 2 53 -6 23 -11 26 -47 26 -25 0 -42 -5 -45 -14z"/>
<path d="M2094 1087 c-2 -7 -3 -94 -2 -192 l3 -180 42 -3 c51 -4 49 -14 45
216 l-3 172 -40 0 c-23 0 -42 -5 -45 -13z"/>
<path d="M2548 795 c-8 -18 -9 -35 -2 -53 8 -22 16 -28 47 -30 48 -4 67 11 67
52 0 42 -16 56 -62 56 -31 0 -41 -5 -50 -25z"/>
</g>
</svg>
