<?xml version="1.0" standalone="no"?>
<!DOCTYPE svg PUBLIC "-//W3C//DTD SVG 20010904//EN"
 "http://www.w3.org/TR/2001/REC-SVG-20010904/DTD/svg10.dtd">
<svg version="1.0" xmlns="http://www.w3.org/2000/svg"
 width="411.000000pt" height="426.000000pt" viewBox="0 0 411.000000 426.000000"
 preserveAspectRatio="xMidYMid meet">
<metadata>
Created by potrace 1.10, written by Peter Selinger 2001-2011
</metadata>
<g transform="translate(0.000000,426.000000) scale(0.100000,-0.100000)"
fill="#d83431" stroke="none">
<path d="M1030 3562 c-14 -5 -14 -1591 1 -1608 13 -15 57 -18 77 -5 10 6 13
148 12 731 0 398 -3 734 -6 747 -11 43 10 53 107 53 64 0 89 -3 89 -12 3 -91
-2 -603 -7 -630 -4 -29 -2 -39 11 -44 12 -5 44 22 117 95 55 55 108 101 117
101 17 0 212 -185 212 -202 0 -19 29 -6 32 15 2 12 1 188 -2 390 l-5 368 -373
2 c-204 1 -376 1 -382 -1z m668 -329 c2 -204 0 -243 -12 -243 -8 0 -39 27 -69
60 -31 33 -61 60 -67 60 -6 0 -36 -27 -67 -60 -53 -58 -82 -74 -84 -47 -3 42
3 463 7 469 2 3 68 6 147 5 l142 -2 3 -242z"/>
<path d="M1883 3553 c-2 -6 -3 -26 -1 -45 l3 -33 475 -1 475 0 0 -161 c0 -89
3 -165 7 -169 8 -8 273 -7 323 2 17 2 36 1 43 -4 10 -7 12 -227 12 -1106 0
-604 -3 -1102 -6 -1107 -3 -6 -313 -9 -804 -9 -440 1 -804 -1 -810 -5 -12 -7
-13 -45 -2 -63 7 -10 177 -13 857 -13 466 1 850 2 852 4 2 2 3 532 3 1178 l0
1174 -22 21 c-37 34 -237 214 -314 281 l-70 62 -508 3 c-378 2 -510 0 -513 -9z
m1122 -194 c29 -27 68 -61 86 -75 37 -27 53 -50 44 -63 -7 -12 -186 -2 -202
12 -9 6 -13 38 -13 93 0 103 9 106 85 33z"/>
<path d="M2464 2967 c-18 -10 -19 -77 -1 -78 6 0 135 0 286 -1 218 0 275 3
282 14 12 18 11 31 -3 51 -12 16 -41 18 -281 20 -148 1 -275 -2 -283 -6z"/>
<path d="M1309 2536 c-11 -12 -12 -46 -1 -64 7 -10 181 -12 858 -12 785 0 850
1 862 17 6 9 12 22 12 27 -1 37 5 36 -869 39 -528 1 -856 -2 -862 -7z"/>
<path d="M1308 2357 c-5 -11 -7 -30 -4 -43 l6 -23 848 -3 c500 -2 852 1 860 6
8 5 12 24 10 43 l-3 34 -853 2 c-821 2 -854 1 -864 -16z"/>
<path d="M1309 2188 c-12 -23 -11 -55 1 -63 14 -8 747 -8 760 0 12 7 13 45 2
63 -7 9 -93 13 -381 15 -341 2 -374 1 -382 -15z"/>
<path d="M985 1851 c-99 -27 -189 -100 -225 -183 -20 -46 -22 -64 -17 -133 3
-45 2 -87 -2 -94 -5 -8 -23 -12 -44 -10 -20 2 -39 0 -43 -4 -10 -9 -13 -576
-3 -582 11 -7 828 -7 839 0 16 10 13 585 -2 586 -7 1 -29 2 -48 3 l-35 1 -5
110 c-6 125 -16 151 -83 216 -67 65 -127 91 -222 95 -44 2 -93 0 -110 -5z
m175 -91 c47 -13 106 -63 130 -111 16 -30 20 -58 20 -129 l0 -90 -142 2 -143
3 -3 -36 c-2 -21 3 -40 10 -47 9 -7 65 -8 188 -1 134 6 176 6 182 -4 4 -6 7
-104 5 -217 l-2 -205 -332 -3 c-263 -2 -333 0 -334 10 -5 117 1 412 9 420 7 7
34 7 87 -1 42 -6 80 -9 85 -6 14 9 21 55 11 73 -7 12 -23 17 -53 17 l-43 0 -3
75 c-5 118 39 199 132 241 45 21 139 25 196 9z"/>
<path d="M1209 1167 c-7 -15 -7 -31 0 -50 9 -23 16 -27 51 -27 34 0 42 4 50
25 6 16 6 34 0 50 -8 21 -16 25 -50 25 -32 0 -42 -5 -51 -23z"/>
<path d="M2067 1523 c-12 -11 -8 -68 5 -81 13 -13 66 -16 85 -4 18 12 27 60
13 77 -13 15 -90 21 -103 8z"/>
<path d="M2267 1523 c-9 -8 -9 -56 -1 -77 4 -11 19 -16 45 -16 34 0 41 4 50
27 17 45 -2 73 -49 73 -21 0 -42 -3 -45 -7z"/>
<path d="M2460 1522 c-13 -5 -13 -69 1 -77 14 -9 544 -9 558 0 12 7 15 75 4
76 -38 2 -555 3 -563 1z"/>
<path d="M2072 1338 c-14 -14 -16 -54 -3 -63 6 -3 220 -6 478 -6 426 -1 468 1
479 16 7 10 10 25 5 37 -7 19 -19 20 -477 24 -352 3 -473 1 -482 -8z"/>
<path d="M1599 1176 c-11 -12 -12 -46 -1 -64 7 -10 133 -13 615 -13 334 0 612
3 617 6 14 9 12 65 -2 70 -26 10 -1219 10 -1229 1z"/>
<path d="M2930 1171 c-26 -49 -5 -81 52 -81 33 0 40 4 49 27 17 45 -2 73 -50
73 -30 0 -43 -5 -51 -19z"/>
</g>
</svg>
