<?xml version="1.0" standalone="no"?>
<!DOCTYPE svg PUBLIC "-//W3C//DTD SVG 20010904//EN"
 "http://www.w3.org/TR/2001/REC-SVG-20010904/DTD/svg10.dtd">
<svg version="1.0" xmlns="http://www.w3.org/2000/svg"
 width="417.000000pt" height="411.000000pt" viewBox="0 0 417.000000 411.000000"
 preserveAspectRatio="xMidYMid meet">
<metadata>
Created by potrace 1.10, written by Peter Selinger 2001-2011
</metadata>
<g transform="translate(0.000000,411.000000) scale(0.100000,-0.100000)"
fill="#d83431" stroke="none">
<path d="M1014 3449 c-18 -20 -19 -47 -24 -478 -3 -251 -1 -464 3 -473 9 -21
77 -26 78 -5 0 6 1 162 2 345 l2 332 1128 0 c620 0 1132 0 1138 0 8 0 10 -21
5 -74 -5 -61 -4 -77 9 -90 20 -19 58 -21 73 -3 7 8 10 85 10 207 0 192 -1 195
-25 227 l-25 33 -1178 0 -1177 0 -19 -21z m2334 -126 c2 -46 0 -63 -10 -63 -7
0 -519 -1 -1138 -1 l-1125 0 -3 52 c-2 28 -1 58 2 65 5 12 185 14 1138 12
l1133 -3 3 -62z"/>
<path d="M1448 2999 c-12 -6 -18 -22 -18 -44 0 -40 -12 -50 -57 -47 l-34 3 3
-98 c3 -93 4 -98 28 -109 139 -67 145 -71 145 -106 0 -32 -1 -33 -40 -33 -22
0 -59 3 -83 7 -39 6 -44 4 -54 -17 -6 -13 -8 -35 -4 -49 5 -21 13 -25 49 -28
41 -3 42 -4 47 -43 5 -38 7 -40 42 -43 40 -3 43 1 50 68 3 21 8 25 38 25 l35
0 0 100 0 100 -35 15 c-103 44 -135 65 -138 91 -5 41 19 53 85 43 88 -12 106
-3 101 46 -3 22 -8 25 -43 26 -39 0 -40 1 -43 40 -4 54 -35 76 -74 53z"/>
<path d="M1786 2914 c-39 -39 -3 -114 46 -95 43 16 52 70 16 95 -28 20 -43 20
-62 0z"/>
<path d="M1954 2899 c-17 -18 -5 -63 18 -70 7 -2 311 -2 676 1 365 3 672 2
683 -2 18 -7 19 -21 19 -387 0 -353 -1 -380 -17 -384 -10 -3 -243 -5 -518 -6
-275 0 -503 -1 -507 -1 -4 0 -9 -107 -10 -237 l-3 -238 -130 0 -130 0 -3 -38
c-4 -49 10 -54 140 -46 57 4 109 4 116 1 10 -4 13 -56 11 -254 -1 -137 1 -251
4 -254 6 -7 588 -7 594 0 7 7 5 575 -2 586 -5 9 -77 11 -249 10 -132 -1 -246
-2 -252 -1 -8 1 -11 59 -10 194 l1 192 502 3 502 2 26 34 25 33 0 432 c0 336
-3 433 -12 436 -7 3 -338 6 -736 7 -654 3 -725 1 -738 -13z m862 -1412 c10
-10 6 -409 -4 -419 -11 -11 -405 -14 -422 -3 -14 8 -13 422 0 427 14 4 421 0
426 -5z"/>
<path d="M2486 1314 c-25 -25 -20 -72 8 -86 31 -14 53 -5 68 26 22 51 -38 99
-76 60z"/>
<path d="M2658 1318 c-28 -22 -31 -55 -9 -77 30 -30 69 -27 81 5 14 35 12 50
-6 68 -19 19 -44 20 -66 4z"/>
<path d="M1954 2729 c-17 -19 -18 -53 -1 -66 9 -6 377 -10 430 -4 9 1 9 52 -1
68 -5 8 -69 12 -210 15 -175 3 -205 1 -218 -13z"/>
<path d="M3001 2736 c-7 -8 -11 -30 -9 -48 3 -32 4 -33 48 -33 43 0 45 1 48
31 5 53 -56 87 -87 50z"/>
<path d="M2474 2714 c-14 -55 -7 -57 214 -56 111 0 207 1 213 1 6 1 9 17 7 39
l-3 37 -212 3 -213 2 -6 -26z"/>
<path d="M993 2384 c-3 -8 -3 -44 0 -79 9 -91 8 -91 -149 -84 -72 4 -137 2
-146 -3 -17 -8 -18 -54 -18 -746 0 -561 3 -741 12 -750 9 -9 281 -12 1160 -12
1235 0 1190 -2 1217 49 8 14 16 852 11 1109 0 9 -13 12 -42 10 l-43 -3 2 -520
c2 -286 0 -528 -3 -537 -5 -17 -63 -18 -1131 -16 l-1126 3 1 662 c0 365 3 666
5 670 3 5 61 8 129 8 l123 0 -3 -55 c-2 -41 3 -63 18 -87 l19 -32 578 -3 c318
-2 584 -1 591 1 7 2 12 19 12 42 0 24 -5 39 -12 39 -7 1 -263 2 -568 3 l-555
2 -3 49 -3 49 85 -7 c78 -5 86 -4 96 13 7 14 7 28 0 46 -10 27 -12 27 -68 19
-114 -15 -107 -20 -108 71 -1 44 -2 86 -3 93 -2 18 -70 16 -78 -4z"/>
<path d="M1339 2201 c-5 -13 -7 -31 -4 -40 4 -15 81 -16 872 -14 937 2 894 0
880 54 l-6 24 -867 0 -866 0 -9 -24z"/>
<path d="M1002 1744 c-13 -9 -15 -33 -13 -125 1 -62 5 -117 7 -121 3 -4 61 -8
130 -8 l125 0 -3 131 -3 131 -114 2 c-70 0 -120 -3 -129 -10z m163 -124 l0
-45 -45 0 -45 0 -3 48 -3 48 48 -3 48 -3 0 -45z"/>
<path d="M2822 1748 c-19 -19 -15 -66 7 -78 46 -24 84 -6 84 40 0 17 -6 36
-14 41 -20 13 -63 11 -77 -3z"/>
<path d="M908 1319 c-21 -12 -24 -69 -6 -87 17 -17 64 -15 82 4 49 48 -16 119
-76 83z"/>
<path d="M1081 1316 c-17 -20 -10 -77 11 -90 28 -17 72 4 76 36 5 41 -14 68
-47 68 -16 0 -34 -6 -40 -14z"/>
<path d="M1263 1324 c-8 -3 -13 -24 -13 -50 0 -38 3 -44 24 -50 50 -12 61 -3
61 51 0 48 -1 50 -30 52 -16 1 -36 0 -42 -3z"/>
<path d="M1432 1318 c-17 -17 -15 -73 2 -87 8 -7 30 -11 48 -9 33 3 33 4 33
53 0 50 0 50 -35 53 -19 2 -41 -3 -48 -10z"/>
<path d="M1692 1318 c-7 -7 -12 -27 -12 -45 0 -26 6 -36 24 -44 59 -27 106 23
72 76 -18 27 -63 34 -84 13z"/>
<path d="M1867 1312 c-47 -52 11 -115 74 -82 23 13 26 62 3 84 -21 21 -57 20
-77 -2z"/>
<path d="M2041 1316 c-16 -20 -10 -76 10 -89 22 -14 66 -1 79 23 17 32 -8 74
-46 78 -18 2 -36 -3 -43 -12z"/>
<path d="M899 1048 c-13 -24 -11 -68 4 -69 14 -1 508 0 520 0 13 1 8 71 -6 77
-8 3 -125 6 -261 7 -224 2 -249 0 -257 -15z"/>
<path d="M1519 1042 c-12 -31 -11 -49 2 -58 6 -4 124 -7 261 -7 188 0 252 3
257 12 10 15 2 59 -11 67 -6 4 -120 7 -255 8 l-245 1 -9 -23z"/>
</g>
</svg>
