<?xml version="1.0" standalone="no"?>
<!DOCTYPE svg PUBLIC "-//W3C//DTD SVG 20010904//EN"
 "http://www.w3.org/TR/2001/REC-SVG-20010904/DTD/svg10.dtd">
<svg version="1.0" xmlns="http://www.w3.org/2000/svg"
 width="363.000000pt" height="399.000000pt" viewBox="0 0 363.000000 399.000000"
 preserveAspectRatio="xMidYMid meet">
<metadata>
Created by potrace 1.10, written by Peter Selinger 2001-2011
</metadata>
<g transform="translate(0.000000,399.000000) scale(0.100000,-0.100000)"
fill="#d83431" stroke="none">
<path d="M1594 3475 c-45 -7 -91 -18 -102 -24 -11 -6 -31 -11 -44 -11 -13 0
-32 -6 -43 -14 -11 -7 -31 -16 -45 -19 -78 -17 -224 -92 -330 -170 -30 -23
-91 -76 -136 -118 l-81 -78 -97 6 -96 6 0 -47 0 -48 57 4 c73 4 78 -11 26 -75
-34 -41 -86 -135 -130 -237 -8 -19 -19 -43 -25 -53 -14 -29 -46 -137 -53 -187
-4 -25 -11 -53 -16 -62 -15 -29 -14 -89 2 -99 23 -14 66 -10 73 7 3 9 6 31 6
49 l0 34 172 3 c95 2 179 1 186 -1 10 -2 11 -28 6 -110 -4 -58 -8 -108 -10
-110 -2 -2 -105 -3 -228 -2 -123 1 -226 -1 -229 -6 -8 -12 21 -307 36 -383 18
-85 37 -139 95 -268 100 -224 262 -422 464 -565 83 -59 266 -149 348 -171 36
-10 88 -24 116 -32 28 -8 69 -14 91 -14 21 0 63 -7 93 -16 81 -24 211 -7 473
63 81 21 278 118 353 173 32 24 98 82 146 128 l86 83 99 -3 98 -3 0 40 0 40
-62 -2 c-76 -3 -80 7 -30 70 19 23 42 58 53 77 10 19 24 42 30 50 6 8 25 51
43 95 19 44 39 94 47 110 8 20 15 90 18 202 5 180 2 213 -19 213 -17 0 -25
-33 -25 -112 0 -54 -3 -69 -17 -76 -10 -5 -163 -8 -341 -7 l-322 2 -6 -24 c-4
-13 -2 -34 3 -45 9 -21 14 -21 297 -19 158 1 294 5 302 8 8 3 25 2 39 -1 29
-7 32 -30 10 -72 -8 -16 -15 -36 -15 -44 0 -8 -9 -26 -19 -39 l-19 -24 -503
-1 -504 -1 -3 -42 c-3 -36 0 -43 15 -43 151 -3 902 2 917 5 12 3 28 1 36 -4
18 -12 4 -42 -79 -160 -87 -124 -73 -116 -212 -117 l-121 -1 6 27 c3 15 19 49
37 75 38 56 32 78 -22 83 -34 3 -35 2 -67 -75 -18 -43 -36 -84 -41 -91 -6 -11
-65 -14 -282 -14 l-274 0 0 80 c0 89 -8 105 -51 100 l-29 -3 3 -79 c2 -44 -2
-83 -8 -91 -11 -13 -206 -20 -242 -9 -23 7 -44 72 -29 87 8 7 47 12 99 12 85
0 86 1 96 27 7 20 6 31 -4 43 -12 15 -27 16 -105 10 -70 -5 -94 -4 -102 7 -11
13 -29 162 -41 338 l-7 95 -193 0 c-145 0 -195 3 -201 13 -4 7 -7 125 -7 263
2 277 0 272 66 264 96 -12 156 -14 168 -6 8 5 12 23 10 47 l-3 39 -107 0 c-58
0 -109 3 -113 6 -11 11 25 163 41 176 10 7 36 10 63 8 25 -3 96 -7 157 -9 120
-6 134 -1 134 45 0 48 -15 52 -172 41 -79 -5 -146 -7 -150 -5 -13 7 -9 43 7
71 19 36 50 109 64 154 7 21 17 41 23 44 14 9 535 7 549 -2 8 -5 10 -52 7
-170 -3 -108 -2 -166 5 -173 15 -15 54 -14 64 2 4 6 6 87 4 180 -2 134 0 167
11 168 7 0 128 0 268 0 140 -1 260 -1 267 -1 11 0 46 -67 98 -189 36 -87 30
-91 -98 -79 -54 5 -105 7 -113 4 -17 -7 -19 -72 -2 -82 13 -8 174 -7 224 2 25
5 32 1 42 -20 20 -45 66 -394 55 -422 -5 -14 -21 -15 -121 -9 -92 6 -116 5
-123 -6 -12 -19 -11 -66 1 -74 5 -3 169 -7 365 -8 l355 -2 2 85 c3 190 -5 385
-17 410 -7 14 -21 45 -30 70 -19 47 -48 110 -68 145 -56 97 -79 131 -144 210
-95 116 -131 152 -225 222 -168 126 -383 222 -568 254 -93 16 -318 19 -406 4z
m151 -254 l0 -173 -244 -1 c-176 -1 -246 2 -248 10 -7 21 164 200 238 249 75
50 188 95 229 91 l25 -2 0 -174z m159 168 c107 -30 216 -100 314 -203 77 -81
106 -121 99 -133 -4 -6 -393 -8 -489 -3 -8 0 -10 329 -2 342 7 11 29 10 78 -3z
m-529 -69 c3 -5 -27 -42 -68 -82 -40 -40 -91 -100 -113 -133 l-39 -60 -103 -3
c-92 -2 -102 -1 -102 15 1 38 343 264 412 272 4 1 10 -3 13 -9z m930 -30 c82
-44 236 -156 300 -218 77 -73 139 -146 211 -247 61 -86 81 -122 71 -131 -6 -6
-308 -6 -314 0 -2 2 -12 33 -23 69 -21 77 -116 271 -158 325 -15 20 -35 49
-44 63 -9 14 -46 55 -83 91 -94 92 -77 112 40 48z m-1207 -343 c2 -10 -4 -30
-14 -45 -9 -14 -31 -67 -48 -117 l-31 -90 -149 -5 c-96 -3 -154 -1 -163 5 -12
9 0 33 65 132 44 67 87 125 96 130 8 4 66 8 128 8 101 0 113 -2 116 -18z
m-120 -355 c2 -11 -2 -31 -9 -43 -6 -13 -14 -45 -18 -73 l-6 -51 -177 0 c-128
0 -179 3 -182 11 -7 17 43 156 60 169 9 6 79 10 172 9 153 0 157 -1 160 -22z
m1961 -9 c37 -64 96 -392 73 -407 -6 -3 -85 -8 -176 -11 -153 -5 -166 -4 -175
13 -6 11 -7 29 -4 41 8 30 -27 279 -44 313 -12 26 -18 70 -9 79 2 2 75 3 161
2 l157 -1 17 -29z m-2019 -621 c0 -37 4 -81 9 -98 15 -53 4 -59 -116 -59
l-108 0 -3 -36 c-5 -54 8 -58 121 -47 109 11 127 5 127 -41 1 -45 52 -233 94
-346 31 -84 107 -232 149 -295 17 -24 64 -79 104 -121 81 -84 90 -105 43 -95
-27 5 -91 43 -244 145 -58 38 -220 195 -263 255 -21 28 -40 53 -43 56 -38 34
-158 274 -184 370 -10 36 -24 86 -32 112 -8 26 -14 61 -14 78 0 17 -7 60 -16
95 -9 36 -14 71 -10 80 4 13 34 15 196 15 l190 0 0 -68z m411 -254 c5 -7 9
-51 9 -97 0 -46 7 -114 16 -151 25 -100 25 -100 -109 -100 -80 0 -118 4 -125
13 -23 28 -105 316 -97 339 8 19 294 15 306 -4z m57 -446 c6 -9 12 -25 12 -37
0 -11 20 -78 44 -148 31 -91 58 -149 92 -198 37 -54 45 -72 36 -81 -10 -10
-20 -8 -48 7 -50 27 -202 189 -258 276 -27 41 -61 93 -77 117 -27 40 -36 72
-24 84 3 3 51 3 108 0 77 -3 105 -8 115 -20z m930 -164 c7 -36 -194 -235 -283
-280 -119 -60 -197 -80 -212 -55 -4 9 -6 89 -3 179 l5 163 150 -3 c83 -1 186
2 230 7 100 11 109 10 113 -11z m312 9 c0 -26 -104 -109 -271 -215 -104 -66
-142 -81 -154 -61 -5 8 13 32 52 68 34 31 84 90 112 131 l52 75 82 6 c45 3 92
6 105 7 12 1 22 -4 22 -11z m-883 -147 c2 -80 4 -156 5 -170 2 -20 -2 -26 -22
-28 -21 -2 -34 8 -69 55 -43 57 -141 252 -141 279 0 12 20 14 112 12 l113 -3
2 -145z"/>
<path d="M794 1626 c-3 -8 -4 -29 -2 -48 3 -28 7 -33 31 -36 16 -2 35 2 43 9
19 15 18 54 -2 73 -19 20 -63 21 -70 2z"/>
<path d="M464 3052 c-18 -12 -25 -48 -15 -76 9 -21 17 -26 45 -26 22 0 36 6
40 16 10 26 7 69 -6 82 -13 13 -47 16 -64 4z"/>
<path d="M1583 2853 c-5 -10 -6 -103 -3 -208 3 -104 3 -196 1 -202 -2 -7 -17
-13 -35 -13 -45 0 -58 -12 -54 -51 3 -32 5 -34 46 -37 24 -2 42 -8 42 -15 1
-11 0 -490 0 -509 0 -5 -15 -8 -34 -8 -40 0 -59 -19 -54 -57 l3 -28 125 0 125
0 -4 -132 -4 -132 28 -7 c54 -14 60 0 60 142 l0 129 141 0 141 0 47 38 c62 52
86 100 86 177 0 58 -16 106 -52 151 -20 25 -80 59 -105 59 -31 0 -34 10 -18
62 17 58 7 105 -34 157 -45 56 -77 64 -231 56 -114 -7 -130 -6 -136 8 -3 9 -7
110 -7 224 l-2 208 -32 3 c-23 2 -34 -2 -40 -15z m162 -777 c0 -246 -2 -270
-18 -280 -13 -8 -23 -7 -43 4 l-26 15 0 257 c0 141 3 261 7 268 4 6 23 10 43
8 l37 -3 0 -269z m170 264 c78 -18 110 -96 60 -146 -22 -22 -32 -25 -88 -22
l-62 3 -3 79 c-4 100 4 107 93 86z m167 -276 c50 -24 72 -60 73 -119 0 -41 -6
-59 -28 -88 -34 -45 -63 -53 -197 -52 l-105 0 -3 124 c-1 69 0 131 2 138 8 20
215 18 258 -3z"/>
<path d="M1933 2699 c-27 -10 -39 -49 -23 -78 16 -30 77 -30 89 1 19 51 -19
95 -66 77z"/>
<path d="M2092 2699 c-20 -7 -23 -15 -20 -51 3 -43 3 -43 43 -43 39 0 40 1 43
38 5 59 -16 76 -66 56z"/>
<path d="M2246 2514 c-18 -18 -20 -47 -6 -75 8 -14 21 -19 49 -19 33 0 40 4
45 26 8 29 -1 65 -18 76 -19 13 -54 9 -70 -8z"/>
<path d="M1333 2413 c-15 -44 -2 -77 31 -81 34 -4 56 13 56 45 0 40 -18 63
-49 63 -23 0 -31 -6 -38 -27z"/>
<path d="M1330 2241 c-27 -51 12 -101 64 -82 21 9 26 17 26 44 0 18 -5 38 -12
45 -19 19 -66 15 -78 -7z"/>
<path d="M1330 2071 c-25 -47 -6 -91 40 -91 35 0 50 17 50 57 0 22 -6 36 -19
43 -30 16 -59 12 -71 -9z"/>
<path d="M2416 1984 c-36 -35 -7 -98 43 -92 22 3 26 8 29 41 5 60 -35 89 -72
51z"/>
<path d="M2756 1984 c-32 -31 -12 -94 29 -94 34 0 59 39 46 72 -14 38 -49 48
-75 22z"/>
<path d="M2577 1983 c-12 -11 -8 -68 5 -81 7 -7 25 -12 40 -12 33 0 52 35 42
76 -5 20 -12 24 -43 24 -21 0 -41 -3 -44 -7z"/>
<path d="M1910 1350 c-24 -45 21 -92 66 -71 24 11 31 41 18 75 -9 24 -71 21
-84 -4z"/>
<path d="M2083 1364 c-7 -3 -13 -21 -13 -39 0 -38 25 -59 63 -53 19 3 22 9 22
48 0 43 -1 45 -30 47 -16 1 -36 0 -42 -3z"/>
<path d="M3027 1193 c-11 -10 -8 -91 2 -98 17 -10 33 35 26 71 -6 33 -14 41
-28 27z"/>
</g>
</svg>
