<?xml version="1.0" standalone="no"?>
<!DOCTYPE svg PUBLIC "-//W3C//DTD SVG 20010904//EN"
 "http://www.w3.org/TR/2001/REC-SVG-20010904/DTD/svg10.dtd">
<svg version="1.0" xmlns="http://www.w3.org/2000/svg"
 width="258.000000pt" height="243.000000pt" viewBox="0 0 258.000000 243.000000"
 preserveAspectRatio="xMidYMid meet">
<metadata>
Created by potrace 1.10, written by Peter Selinger 2001-2011
</metadata>
<g transform="translate(0.000000,243.000000) scale(0.100000,-0.100000)"
fill="#d83431" stroke="none">
<path d="M1222 2118 c-32 -32 8 -80 48 -58 34 18 19 70 -20 70 -9 0 -21 -5
-28 -12z"/>
<path d="M794 2025 c-9 -23 9 -37 42 -33 21 2 29 8 29 23 0 26 -62 35 -71 10z"/>
<path d="M1634 2025 c-9 -23 9 -37 42 -33 21 2 29 8 29 23 0 26 -62 35 -71 10z"/>
<path d="M1226 1997 c-21 -16 -18 -45 7 -61 37 -23 77 35 41 61 -10 7 -21 13
-24 13 -3 0 -14 -6 -24 -13z"/>
<path d="M890 1905 c-26 -32 13 -81 48 -59 34 22 22 74 -18 74 -10 0 -23 -7
-30 -15z"/>
<path d="M1580 1905 c-26 -32 13 -81 48 -59 34 22 22 74 -18 74 -10 0 -23 -7
-30 -15z"/>
<path d="M1220 1845 c-26 -32 13 -81 48 -59 34 22 22 74 -18 74 -10 0 -23 -7
-30 -15z"/>
<path d="M950 1785 c-26 -32 13 -81 48 -59 34 22 22 74 -18 74 -10 0 -23 -7
-30 -15z"/>
<path d="M1490 1785 c-26 -32 13 -81 48 -59 34 22 22 74 -18 74 -10 0 -23 -7
-30 -15z"/>
<path d="M494 1726 c-11 -28 0 -61 21 -61 16 0 20 7 20 35 0 25 -5 36 -18 38
-9 2 -20 -3 -23 -12z"/>
<path d="M1970 1725 c-26 -32 13 -81 48 -59 34 22 22 74 -18 74 -10 0 -23 -7
-30 -15z"/>
<path d="M620 1635 c-26 -32 13 -81 48 -59 34 22 22 74 -18 74 -10 0 -23 -7
-30 -15z"/>
<path d="M1844 1636 c-11 -28 0 -61 21 -61 16 0 20 7 20 35 0 25 -5 36 -18 38
-9 2 -20 -3 -23 -12z"/>
<path d="M734 1545 c-9 -23 9 -37 42 -33 21 2 29 8 29 23 0 26 -62 35 -71 10z"/>
<path d="M1694 1545 c-9 -23 9 -37 42 -33 21 2 29 8 29 23 0 26 -62 35 -71 10z"/>
<path d="M1107 1470 c-35 -47 -38 -55 -35 -108 3 -55 4 -56 38 -63 18 -4 40
-16 47 -26 22 -29 27 -64 12 -74 -8 -5 -66 -9 -130 -9 -95 0 -118 3 -123 15
-13 34 33 95 71 95 13 0 26 7 29 15 9 24 -15 45 -51 45 -28 0 -38 -7 -70 -51
-33 -47 -36 -55 -33 -112 l3 -62 175 0 175 0 3 62 c2 35 -2 71 -7 82 -13 23 2
31 54 31 42 0 50 -12 30 -44 -11 -16 -15 -41 -13 -77 l3 -52 170 0 c94 1 176
2 183 2 8 1 12 21 12 65 0 48 -5 69 -20 89 -11 14 -20 29 -20 34 0 34 -112 33
-118 0 -4 -17 2 -21 51 -31 18 -5 33 -18 44 -40 29 -61 19 -66 -122 -66 l-125
0 0 33 c0 36 33 77 62 77 29 0 41 27 36 84 -3 41 -12 63 -37 95 l-33 41 -112
0 -112 0 -37 -50z m241 -19 c16 -10 42 -58 42 -77 0 -23 -20 -27 -137 -28 -99
-1 -116 1 -124 16 -9 17 -4 38 21 76 13 20 23 22 100 22 47 0 91 -4 98 -9z"/>
<path d="M412 1308 c-25 -25 -6 -68 30 -68 9 0 22 9 28 20 22 40 -26 80 -58
48z"/>
<path d="M530 1301 c-25 -47 36 -83 64 -38 8 12 8 22 0 35 -16 25 -51 27 -64
3z"/>
<path d="M680 1305 c-26 -32 13 -81 48 -59 34 22 22 74 -18 74 -10 0 -23 -7
-30 -15z"/>
<path d="M1792 1308 c-25 -25 -6 -68 30 -68 9 0 22 9 28 20 22 40 -26 80 -58
48z"/>
<path d="M1910 1301 c-25 -47 36 -83 64 -38 8 12 8 22 0 35 -16 25 -51 27 -64
3z"/>
<path d="M2054 1306 c-11 -28 0 -61 21 -61 16 0 20 7 20 35 0 25 -5 36 -18 38
-9 2 -20 -3 -23 -12z"/>
<path d="M740 1035 c-26 -32 13 -81 48 -59 34 22 22 74 -18 74 -10 0 -23 -7
-30 -15z"/>
<path d="M1700 1035 c-26 -32 13 -81 48 -59 34 22 22 74 -18 74 -10 0 -23 -7
-30 -15z"/>
<path d="M620 945 c-26 -32 13 -81 48 -59 34 22 22 74 -18 74 -10 0 -23 -7
-30 -15z"/>
<path d="M1844 946 c-11 -28 0 -61 21 -61 16 0 20 7 20 35 0 25 -5 36 -18 38
-9 2 -20 -3 -23 -12z"/>
<path d="M494 886 c-11 -28 0 -61 21 -61 16 0 20 7 20 35 0 25 -5 36 -18 38
-9 2 -20 -3 -23 -12z"/>
<path d="M1970 885 c-26 -32 13 -81 48 -59 34 22 22 74 -18 74 -10 0 -23 -7
-30 -15z"/>
<path d="M950 825 c-26 -32 13 -81 48 -59 34 22 22 74 -18 74 -10 0 -23 -7
-30 -15z"/>
<path d="M1490 825 c-26 -32 13 -81 48 -59 34 22 22 74 -18 74 -10 0 -23 -7
-30 -15z"/>
<path d="M1222 738 c-32 -32 8 -80 48 -58 34 18 19 70 -20 70 -9 0 -21 -5 -28
-12z"/>
<path d="M884 675 c-9 -23 9 -37 42 -33 21 2 29 8 29 23 0 26 -62 35 -71 10z"/>
<path d="M1574 675 c-9 -23 9 -37 42 -33 21 2 29 8 29 23 0 26 -62 35 -71 10z"/>
<path d="M1226 617 c-21 -16 -18 -45 7 -61 37 -23 77 35 41 61 -10 7 -21 13
-24 13 -3 0 -14 -6 -24 -13z"/>
<path d="M800 555 c-26 -32 13 -81 48 -59 22 14 27 41 12 59 -16 19 -44 19
-60 0z"/>
<path d="M1640 555 c-26 -32 13 -81 48 -59 22 14 27 41 12 59 -16 19 -44 19
-60 0z"/>
<path d="M1214 465 c-9 -23 9 -37 42 -33 21 2 29 8 29 23 0 26 -62 35 -71 10z"/>
</g>
</svg>
